<?xml version="1.0" encoding="utf-8"?>
<!-- Generator: Adobe Illustrator 16.0.0, SVG Export Plug-In . SVG Version: 6.00 Build 0)  -->
<!DOCTYPE svg PUBLIC "-//W3C//DTD SVG 1.1//EN" "http://www.w3.org/Graphics/SVG/1.1/DTD/svg11.dtd">
<svg version="1.1" id="icons" xmlns="http://www.w3.org/2000/svg" xmlns:xlink="http://www.w3.org/1999/xlink" x="0px" y="0px"
	 width="64px" height="64px" viewBox="0 0 64 64" enable-background="new 0 0 64 64" xml:space="preserve">
<g>
	<g>
		<g>
			<polygon fill="#A0D468" points="60.33,50.5 57.67,46.5 53,39.5 11,39.5 8.33,43.5 1,54.5 9.85,54.5 54.15,54.5 63,54.5 			"/>
			<path fill="#AC92EC" d="M29.9,44.5c-1.2-1.221-2.801-2.939-4.471-5C21.4,34.51,17,27.46,17,20.5c0-8.28,6.71-15,15-15
				s15,6.72,15,15c0,6.96-4.4,14.01-8.43,19c-1.67,2.061-3.271,3.779-4.471,5h-0.01c-1.26,1.27-2.09,2-2.09,2S31.17,45.77,29.9,44.5
				z"/>
			<polygon fill="#8CC152" points="60.33,50.5 54.34,50.5 54.33,50.5 50.33,46.5 57.67,46.5 			"/>
			<polygon fill="#8CC152" points="38.1,48.5 42.43,44.5 47.87,53.5 24.13,53.5 20.13,49.5 			"/>
			<polygon fill="#E6E9ED" points="60.33,50.5 63,54.5 54.15,54.5 52.24,50.5 			"/>
			<path fill="#E6E9ED" d="M32,46.5c0,0,0.83-0.73,2.09-2h0.01h8.33l1.44,5H20.13l1.44-5h8.33C31.17,45.77,32,46.5,32,46.5z"/>
			<polygon fill="#E6E9ED" points="15.09,43.5 9.85,54.5 1,54.5 8.33,43.5 			"/>
			<polygon fill="#8CC152" points="19.09,47.5 15.755,54.5 9.85,54.5 15.09,43.5 			"/>
			<polygon fill="#81B53E" points="63,54.5 63,58.5 1,58.5 1,54.5 9.85,54.5 54.15,54.5 			"/>
			<polygon fill="#E6E9ED" points="57.67,46.5 50.34,46.5 50.33,46.5 47,39.5 53,39.5 			"/>
		</g>
		<path fill="#545C66" d="M35.991,28.5c1.101,0,2-0.9,2-2v3c0,1.1-0.899,2-2,2h-8c-1.101,0-2-0.9-2-2v-3c0,1.1,0.899,2,2,2H35.991z"
			/>
		<path fill="#5D9CEC" d="M37.991,22.5v4c0,1.1-0.899,2-2,2h-8c-1.101,0-2-0.9-2-2v-4v-8.01c0-1.101,0.899-2,2-2h8
			c1.101,0,2,0.899,2,2V22.5z"/>
	</g>
	<g>
		<g>
			<path fill="#545C66" d="M35.989,32.499h-8.003c-1.654,0-3-1.346-3-3v-6.998c0-0.553,0.447-1,1-1s1,0.447,1,1v6.998
				c0,0.552,0.448,1,1,1h8.003c0.552,0,1-0.448,1-1v-6.998c0-0.553,0.447-1,1-1s1,0.447,1,1v6.998
				C38.989,31.153,37.644,32.499,35.989,32.499z"/>
		</g>
		<g>
			<g>
				<path fill="#4A89DC" d="M32.013,26.498c-0.553,0-1.005-0.447-1.005-1s0.442-1,0.994-1h0.011c0.552,0,1,0.447,1,1
					S32.564,26.498,32.013,26.498z"/>
			</g>
		</g>
		<g>
			<path fill="#656D78" d="M35.989,29.496h-8.003c-1.654,0-3-1.346-3-3V14.493c0-1.654,1.346-3,3-3h8.003c1.654,0,3,1.346,3,3
				v12.003C38.989,28.15,37.644,29.496,35.989,29.496z M27.986,13.493c-0.552,0-1,0.448-1,1v12.003c0,0.552,0.448,1,1,1h8.003
				c0.552,0,1-0.448,1-1V14.493c0-0.552-0.448-1-1-1H27.986z"/>
		</g>
	</g>
</g>
</svg>
